<svg xmlns="http://www.w3.org/2000/svg" width="20" height="20" fill="none" viewBox="0 0 20 20"><path fill="currentColor" d="M9.993 15.104c.309 0 .57-.105.782-.313.213-.209.32-.467.32-.776 0-.308-.104-.57-.313-.785a1.037 1.037 0 0 0-.775-.322c-.309 0-.57.106-.782.317-.213.211-.32.471-.32.78 0 .308.104.568.313.78.208.213.467.319.775.319Zm-1.051-3.868h2.116v-6.26H8.942v6.26ZM10.007 20c-1.38 0-2.678-.26-3.892-.78a10.074 10.074 0 0 1-3.188-2.147 10.08 10.08 0 0 1-2.146-3.187A9.783 9.783 0 0 1 0 9.988c0-1.384.26-2.68.78-3.886a10.115 10.115 0 0 1 2.147-3.175c.91-.91 1.973-1.626 3.187-2.146A9.783 9.783 0 0 1 10.012 0c1.384 0 2.68.26 3.886.78a10.115 10.115 0 0 1 3.175 2.147c.91.91 1.626 1.971 2.146 3.18.52 1.21.781 2.506.781 3.886 0 1.38-.26 2.678-.78 3.892a10.074 10.074 0 0 1-2.147 3.188c-.91.91-1.971 1.626-3.18 2.146-1.21.52-2.506.781-3.886.781ZM10 17.883c2.194 0 4.056-.765 5.587-2.296 1.531-1.53 2.296-3.393 2.296-5.587s-.765-4.056-2.296-5.587C14.057 2.882 12.194 2.117 10 2.117s-4.056.765-5.587 2.296C2.882 5.943 2.117 7.806 2.117 10s.765 4.056 2.296 5.587c1.53 1.531 3.393 2.296 5.587 2.296Z"/></svg>