<svg xmlns="http://www.w3.org/2000/svg" width="21" height="24" fill="none" viewBox="0 0 21 24"><path fill="currentColor" d="M7.875 2.182a1.11 1.11 0 0 1-.802-.312 1.03 1.03 0 0 1-.323-.773c0-.307.108-.567.323-.779C7.29.106 7.556 0 7.875 0h5.25c.319 0 .586.104.802.312.215.208.323.465.323.773 0 .307-.108.567-.323.779a1.098 1.098 0 0 1-.802.318h-5.25Zm2.618 13.09c.317 0 .585-.104.804-.313.219-.209.328-.468.328-.777V9.09c0-.31-.107-.568-.322-.777A1.096 1.096 0 0 0 10.507 8c-.317 0-.585.105-.804.314-.219.209-.328.468-.328.777v5.09c0 .31.107.569.322.778.214.21.48.314.796.314ZM10.5 24c-1.458 0-2.822-.268-4.091-.803a10.705 10.705 0 0 1-3.328-2.185c-.95-.92-1.7-1.996-2.253-3.227A9.578 9.578 0 0 1 0 13.818c0-1.414.276-2.736.828-3.967a10.348 10.348 0 0 1 2.253-3.227c.95-.92 2.059-1.649 3.328-2.184a10.38 10.38 0 0 1 4.077-.804c1.214 0 2.38.197 3.496.591 1.116.394 2.153.945 3.112 1.652l.852-.827c.224-.216.481-.32.773-.31.291.01.552.127.781.349.23.222.344.475.344.757 0 .283-.115.536-.344.758l-.813.818c.73.91 1.297 1.907 1.704 2.994A9.643 9.643 0 0 1 21 13.822a9.568 9.568 0 0 1-.828 3.963 10.35 10.35 0 0 1-2.253 3.227c-.95.921-2.059 1.65-3.328 2.185-1.269.535-2.633.803-4.091.803Zm0-2.182c2.292 0 4.24-.778 5.844-2.333 1.604-1.556 2.406-3.445 2.406-5.667s-.802-4.11-2.406-5.666-3.552-2.334-5.844-2.334c-2.292 0-4.24.778-5.844 2.334-1.604 1.555-2.406 3.444-2.406 5.666 0 2.222.802 4.111 2.406 5.667 1.604 1.555 3.552 2.333 5.844 2.333Z"/></svg>