<svg xmlns="http://www.w3.org/2000/svg" width="10" height="10" fill="none" viewBox="0 0 10 10"><path fill="currentColor" d="M8.118.398a1.109 1.109 0 0 1 1.56 0c.43.427.43 1.12 0 1.547L6.597 5 5.091 6.495 1.881 9.68a1.108 1.108 0 0 1-1.558 0 1.088 1.088 0 0 1 0-1.547L3.55 5l1.54-1.495L8.118.398Z"/><path fill="currentColor" d="M.323 1.867a1.088 1.088 0 0 1 0-1.547 1.109 1.109 0 0 1 1.559 0l3.21 3.185L6.597 5l3.08 3.055c.43.427.43 1.12 0 1.547a1.108 1.108 0 0 1-1.56 0L5.091 6.495 3.551 5 .323 1.867Z"/></svg>