<svg xmlns="http://www.w3.org/2000/svg" width="16" height="16" fill="none" viewBox="0 0 16 16"><path fill="#A9A9A9" d="M7.994 12.083a.86.86 0 0 0 .626-.25.833.833 0 0 0 .256-.62.87.87 0 0 0-.25-.629.83.83 0 0 0-.62-.258.854.854 0 0 0-.626.254.845.845 0 0 0-.256.624c0 .246.084.455.25.624.167.17.374.255.62.255Zm-.84-3.094h1.693V3.981H7.153v5.008ZM8.005 16a7.818 7.818 0 0 1-3.114-.625 8.06 8.06 0 0 1-2.55-1.717A8.063 8.063 0 0 1 .625 11.11 7.827 7.827 0 0 1 0 7.991c0-1.108.208-2.144.625-3.11A8.063 8.063 0 0 1 4.89.625 7.826 7.826 0 0 1 8.009 0a7.76 7.76 0 0 1 3.11.625 8.075 8.075 0 0 1 4.257 4.262c.416.967.624 2.003.624 3.107a7.818 7.818 0 0 1-.625 3.114 8.057 8.057 0 0 1-1.717 2.55 8.077 8.077 0 0 1-2.544 1.717A7.778 7.778 0 0 1 8.006 16ZM8 14.307c1.755 0 3.245-.613 4.47-1.837 1.224-1.225 1.837-2.715 1.837-4.47s-.613-3.245-1.837-4.47C11.245 2.306 9.755 1.693 8 1.693s-3.245.613-4.47 1.837C2.306 4.755 1.693 6.245 1.693 8s.613 3.245 1.837 4.47c1.225 1.224 2.715 1.837 4.47 1.837Z"/></svg>