<svg xmlns="http://www.w3.org/2000/svg" width="287" height="75" fill="none" viewBox="0 0 287 75"><path fill="currentColor" d="M22.336 32.784c1.621.256 3.093.917 4.416 1.984a11.161 11.161 0 0 1 3.2 3.968 10.912 10.912 0 0 1 1.216 5.056c0 2.261-.576 4.31-1.728 6.144-1.152 1.792-2.837 3.221-5.056 4.288-2.176 1.024-4.757 1.536-7.744 1.536H0V11.152h16c3.03 0 5.61.512 7.744 1.536 2.133.981 3.733 2.325 4.8 4.032 1.067 1.707 1.6 3.627 1.6 5.76 0 2.645-.725 4.843-2.176 6.592-1.408 1.707-3.285 2.944-5.632 3.712ZM5.824 30.416h9.792c2.73 0 4.843-.64 6.336-1.92 1.493-1.28 2.24-3.05 2.24-5.312 0-2.261-.747-4.032-2.24-5.312-1.493-1.28-3.648-1.92-6.464-1.92H5.824v14.464ZM16.128 50.96c2.901 0 5.163-.683 6.784-2.048 1.621-1.365 2.432-3.264 2.432-5.696 0-2.475-.853-4.416-2.56-5.824-1.707-1.45-3.99-2.176-6.848-2.176H5.824V50.96h10.304ZM32.002 38.364c0-3.584.725-6.72 2.176-9.408 1.45-2.73 3.435-4.843 5.952-6.336 2.56-1.493 5.397-2.24 8.512-2.24 3.072 0 5.642.355 8 1.251 2.358.897 3.858 1.897 5.056 3.805v-4.48h5.888v35.072h-5.888v-4.544c-1.698 1.544-2.88 2.799-5.184 4.164-2.261 1.323-4.907.956-7.936.956-3.115 0-5.93-.768-8.448-2.304-2.517-1.536-4.501-3.69-5.952-6.464-1.45-2.773-2.176-5.93-2.176-9.472Zm29.696.064c0-2.645-.533-4.95-1.6-6.912-1.067-1.963-2.517-3.456-4.352-4.48-1.792-1.067-3.776-1.6-5.952-1.6s-4.16.512-5.952 1.536c-1.792 1.024-3.221 2.517-4.288 4.48-1.067 1.963-1.6 4.267-1.6 6.912 0 2.688.533 5.035 1.6 7.04 1.067 1.963 2.496 3.477 4.288 4.544 1.792 1.024 3.776 1.536 5.952 1.536s4.16-.512 5.952-1.536c1.835-1.067 3.285-2.581 4.352-4.544 1.067-2.005 1.6-4.33 1.6-6.976ZM79.868 25.756v20.672c0 1.707.363 2.923 1.088 3.648.725.683 1.984 1.024 3.776 1.024h4.288v4.928h-5.248c-3.243 0-5.675-.747-7.296-2.24-1.621-1.493-2.432-3.947-2.432-7.36V25.756H69.5v-4.8h4.544v-8.832h5.824v8.832h9.152v4.8h-9.152ZM124 37.148c0 1.11-.064 2.283-.192 3.52H95.776c.213 3.456 1.387 6.165 3.52 8.128 2.176 1.92 4.8 2.88 7.872 2.88 2.517 0 4.608-.576 6.272-1.728a9.426 9.426 0 0 0 3.584-4.736h6.272c-.939 3.37-2.816 6.123-5.632 8.256-2.816 2.09-6.315 3.136-10.496 3.136-3.328 0-6.315-.747-8.96-2.24-2.603-1.493-4.65-3.605-6.144-6.336-1.493-2.773-2.24-5.973-2.24-9.6s.725-6.805 2.176-9.536c1.45-2.73 3.477-4.821 6.08-6.272 2.645-1.493 5.675-2.24 9.088-2.24 3.328 0 6.272.725 8.832 2.176 2.56 1.45 4.523 3.456 5.888 6.016 1.408 2.517 2.112 5.376 2.112 8.576Zm-6.016-1.216c0-2.219-.491-4.117-1.472-5.696a9.26 9.26 0 0 0-4.032-3.648c-1.664-.853-3.52-1.28-5.568-1.28-2.944 0-5.461.939-7.552 2.816-2.048 1.877-3.221 4.48-3.52 7.808h22.144ZM161.324 24.476c0 3.712-1.28 6.805-3.84 9.28-2.517 2.432-6.379 3.648-11.584 3.648h-8.576v18.624H131.5V11.42h14.4c5.035 0 8.853 1.216 11.456 3.648 2.645 2.432 3.968 5.568 3.968 9.408ZM145.9 32.604c3.243 0 5.632-.704 7.168-2.112 1.536-1.408 2.304-3.413 2.304-6.016 0-5.504-3.157-8.256-9.472-8.256h-8.576v16.384h8.576ZM178.088 56.604c-3.285 0-6.272-.747-8.96-2.24-2.645-1.493-4.736-3.605-6.272-6.336-1.493-2.773-2.24-5.973-2.24-9.6 0-3.584.768-6.741 2.304-9.472 1.579-2.773 3.712-4.885 6.4-6.336 2.688-1.493 5.696-2.24 9.024-2.24 3.328 0 6.336.747 9.024 2.24 2.688 1.45 4.8 3.541 6.336 6.272 1.579 2.73 2.368 5.91 2.368 9.536 0 3.627-.811 6.827-2.432 9.6-1.579 2.73-3.733 4.843-6.464 6.336-2.731 1.493-5.76 2.24-9.088 2.24Zm0-5.12c2.091 0 4.053-.49 5.888-1.472 1.835-.981 3.307-2.453 4.416-4.416 1.152-1.963 1.728-4.352 1.728-7.168s-.555-5.205-1.664-7.168-2.56-3.413-4.352-4.352c-1.792-.981-3.733-1.472-5.824-1.472-2.133 0-4.096.49-5.888 1.472-1.749.939-3.157 2.39-4.224 4.352-1.067 1.963-1.6 4.352-1.6 7.168 0 2.859.512 5.27 1.536 7.232 1.067 1.963 2.475 3.435 4.224 4.416 1.749.939 3.669 1.408 5.76 1.408ZM215.66 20.316c4.267 0 7.723 1.301 10.368 3.904 2.645 2.56 3.968 6.272 3.968 11.136v20.672h-5.76v-19.84c0-3.499-.875-6.165-2.624-8-1.749-1.877-4.139-2.816-7.168-2.816-3.072 0-5.525.96-7.36 2.88-1.792 1.92-2.688 4.715-2.688 8.384v19.392h-5.824V20.956h5.824v4.992c1.152-1.792 2.709-3.179 4.672-4.16 2.005-.981 4.203-1.472 6.592-1.472ZM240.583 25.756v20.672c0 1.707.363 2.923 1.088 3.648.726.683 1.984 1.024 3.776 1.024h4.288v4.928h-5.248c-3.242 0-5.674-.747-7.296-2.24-1.621-1.493-2.432-3.947-2.432-7.36V25.756h-4.544v-4.8h4.544v-8.43h5.824v8.43h9.152v4.8h-9.152ZM268.088 56.604c-3.285 0-6.272-.747-8.96-2.24-2.645-1.493-4.736-3.605-6.272-6.336-1.493-2.773-2.24-5.973-2.24-9.6 0-3.584.768-6.741 2.304-9.472 1.579-2.773 3.712-4.885 6.4-6.336 2.688-1.493 5.696-2.24 9.024-2.24 3.328 0 6.336.747 9.024 2.24 2.688 1.45 4.8 3.541 6.336 6.272 1.579 2.73 2.368 5.91 2.368 9.536 0 3.627-.811 6.827-2.432 9.6-1.579 2.73-3.733 4.843-6.464 6.336-2.731 1.493-5.76 2.24-9.088 2.24Zm0-5.12c2.091 0 4.053-.49 5.888-1.472 1.835-.981 3.307-2.453 4.416-4.416 1.152-1.963 1.728-4.352 1.728-7.168s-.555-5.205-1.664-7.168-2.56-3.413-4.352-4.352c-1.792-.981-3.733-1.472-5.824-1.472-2.133 0-4.096.49-5.888 1.472-1.749.939-3.157 2.39-4.224 4.352-1.067 1.963-1.6 4.352-1.6 7.168 0 2.859.512 5.27 1.536 7.232 1.067 1.963 2.475 3.435 4.224 4.416 1.749.939 3.669 1.408 5.76 1.408Z"/><path fill="currentColor" d="M49.55 30.175a1.501 1.501 0 0 1 2.9.778l-2 7.463a1.5 1.5 0 0 1-.7.91l-4.5 2.6a1.5 1.5 0 0 1-1.5-2.6l3.96-2.287 1.84-6.864ZM172.545 36.664a1.5 1.5 0 0 1 1.819-1.091l6 1.5a1.5 1.5 0 0 1 .697 2.515l-6 6a1.5 1.5 0 0 1-2.122-2.12l4.126-4.128-3.429-.857a1.5 1.5 0 0 1-1.091-1.82ZM270.701 33.278a1.5 1.5 0 0 1 2.598 1.5l-3.5 6.062a1.501 1.501 0 0 1-1.694.698l-5.5-1.5a1.5 1.5 0 0 1 .79-2.895l4.384 1.195 2.922-5.06ZM57 55.351c2.346 4.022 4.305 5.244 10.995 8.407 6.654 3.146 15.08 5.453 24.566 6.34 18.969 1.775 42.008-2.14 63.343-16.119l2.192 3.346C135.931 71.847 111.97 75.93 92.189 74.08c-9.889-.925-18.775-3.338-25.903-6.707C59.196 64.02 54.904 61.627 52 56.649l5-1.298ZM225.685.156c7.979-.513 15.629.252 22.098 2.07 6.431 1.808 11.881 4.71 15.236 8.624l-3.038 2.604c-2.645-3.086-7.258-5.684-13.28-7.377-5.984-1.682-13.177-2.417-20.761-1.93-15.191.977-31.645 6.83-42.957 19.346l-2.966-2.682C192.205 7.326 209.751 1.18 225.685.155Z"/><path fill="currentColor" d="M163.159 50.103a1 1 0 0 1 1.08 1.354l-3.12 7.952a1 1 0 0 1-1.712.258l-5.327-6.677a1 1 0 0 1 .633-1.613l8.446-1.274ZM264.729 19.628a1 1 0 0 1-1.659.5l-6.223-5.852a1 1 0 0 1 .397-1.686l8.178-2.463a1 1 0 0 1 1.262 1.186l-1.955 8.315Z"/></svg>